<?xml version="1.0" encoding="UTF-8" standalone="no"?>
<!-- Created with Inkscape (http://www.inkscape.org/) -->

<svg
   xmlns:dc="http://purl.org/dc/elements/1.1/"
   xmlns:cc="http://creativecommons.org/ns#"
   xmlns:rdf="http://www.w3.org/1999/02/22-rdf-syntax-ns#"
   xmlns:svg="http://www.w3.org/2000/svg"
   xmlns="http://www.w3.org/2000/svg"
   xmlns:sodipodi="http://sodipodi.sourceforge.net/DTD/sodipodi-0.dtd"
   xmlns:inkscape="http://www.inkscape.org/namespaces/inkscape"
   width="156.46866mm"
   height="140.31979mm"
   viewBox="0 0 156.46866 140.31979"
   version="1.1"
   id="svg993"
   inkscape:version="0.92.4 (5da689c313, 2019-01-14)"
   sodipodi:docname="cross.svg"
   inkscape:export-filename="E:\carbonic\res\close.png"
   inkscape:export-xdpi="96"
   inkscape:export-ydpi="96">
  <defs
     id="defs987">
    <inkscape:path-effect
       effect="spiro"
       id="path-effect1689"
       is_visible="true" />
    <filter
       style="color-interpolation-filters:sRGB"
       inkscape:label="Drop Shadow"
       id="filter911">
      <feFlood
         flood-opacity="0.498039"
         flood-color="rgb(0,0,0)"
         result="flood"
         id="feFlood901" />
      <feComposite
         in="flood"
         in2="SourceGraphic"
         operator="in"
         result="composite1"
         id="feComposite903" />
      <feGaussianBlur
         in="composite1"
         stdDeviation="3"
         result="blur"
         id="feGaussianBlur905" />
      <feOffset
         dx="-0.5"
         dy="0"
         result="offset"
         id="feOffset907" />
      <feComposite
         in="SourceGraphic"
         in2="offset"
         operator="over"
         result="composite2"
         id="feComposite909" />
    </filter>
    <inkscape:path-effect
       effect="spiro"
       id="path-effect957-0"
       is_visible="true" />
    <inkscape:path-effect
       effect="spiro"
       id="path-effect957"
       is_visible="true" />
    <filter
       style="color-interpolation-filters:sRGB"
       inkscape:label="Drop Shadow"
       id="filter911-5">
      <feFlood
         flood-opacity="0.498039"
         flood-color="rgb(0,0,0)"
         result="flood"
         id="feFlood901-7" />
      <feComposite
         in="flood"
         in2="SourceGraphic"
         operator="in"
         result="composite1"
         id="feComposite903-3" />
      <feGaussianBlur
         in="composite1"
         stdDeviation="3"
         result="blur"
         id="feGaussianBlur905-1" />
      <feOffset
         dx="-0.5"
         dy="0"
         result="offset"
         id="feOffset907-4" />
      <feComposite
         in="SourceGraphic"
         in2="offset"
         operator="over"
         result="composite2"
         id="feComposite909-1" />
    </filter>
    <filter
       style="color-interpolation-filters:sRGB"
       inkscape:label="Drop Shadow"
       id="filter1530">
      <feFlood
         flood-opacity="0.498039"
         flood-color="rgb(0,0,0)"
         result="flood"
         id="feFlood1520" />
      <feComposite
         in="flood"
         in2="SourceGraphic"
         operator="in"
         result="composite1"
         id="feComposite1522" />
      <feGaussianBlur
         in="composite1"
         stdDeviation="3"
         result="blur"
         id="feGaussianBlur1524" />
      <feOffset
         dx="-0.5"
         dy="0"
         result="offset"
         id="feOffset1526" />
      <feComposite
         in="SourceGraphic"
         in2="offset"
         operator="over"
         result="composite2"
         id="feComposite1528" />
    </filter>
    <filter
       style="color-interpolation-filters:sRGB"
       inkscape:label="Drop Shadow"
       id="filter1542">
      <feFlood
         flood-opacity="0.498039"
         flood-color="rgb(0,0,0)"
         result="flood"
         id="feFlood1532" />
      <feComposite
         in="flood"
         in2="SourceGraphic"
         operator="in"
         result="composite1"
         id="feComposite1534" />
      <feGaussianBlur
         in="composite1"
         stdDeviation="3"
         result="blur"
         id="feGaussianBlur1536" />
      <feOffset
         dx="-0.5"
         dy="0"
         result="offset"
         id="feOffset1538" />
      <feComposite
         in="SourceGraphic"
         in2="offset"
         operator="over"
         result="composite2"
         id="feComposite1540" />
    </filter>
    <filter
       style="color-interpolation-filters:sRGB"
       inkscape:label="Drop Shadow"
       id="filter1554">
      <feFlood
         flood-opacity="0.498039"
         flood-color="rgb(0,0,0)"
         result="flood"
         id="feFlood1544" />
      <feComposite
         in="flood"
         in2="SourceGraphic"
         operator="in"
         result="composite1"
         id="feComposite1546" />
      <feGaussianBlur
         in="composite1"
         stdDeviation="3"
         result="blur"
         id="feGaussianBlur1548" />
      <feOffset
         dx="-0.5"
         dy="0"
         result="offset"
         id="feOffset1550" />
      <feComposite
         in="SourceGraphic"
         in2="offset"
         operator="over"
         result="composite2"
         id="feComposite1552" />
    </filter>
  </defs>
  <sodipodi:namedview
     id="base"
     pagecolor="#ffffff"
     bordercolor="#666666"
     borderopacity="1.0"
     inkscape:pageopacity="0.0"
     inkscape:pageshadow="2"
     inkscape:zoom="0.7"
     inkscape:cx="399.16589"
     inkscape:cy="248.36506"
     inkscape:document-units="mm"
     inkscape:current-layer="g960"
     showgrid="false"
     inkscape:window-width="1280"
     inkscape:window-height="747"
     inkscape:window-x="-8"
     inkscape:window-y="-8"
     inkscape:window-maximized="1"
     inkscape:snap-global="false" />
  <metadata
     id="metadata990">
    <rdf:RDF>
      <cc:Work
         rdf:about="">
        <dc:format>image/svg+xml</dc:format>
        <dc:type
           rdf:resource="http://purl.org/dc/dcmitype/StillImage" />
        <dc:title />
      </cc:Work>
    </rdf:RDF>
  </metadata>
  <g
     inkscape:label="Layer 1"
     inkscape:groupmode="layer"
     id="layer1"
     transform="translate(-2.8061189,-2.8836468)">
    <g
       transform="matrix(0.84441128,0,0,0.84441128,-11.906861,-23.37766)"
       id="g960"
       inkscape:export-xdpi="96"
       inkscape:export-ydpi="96">
      <path
         style="opacity:1;fill:#ffffff;fill-opacity:1;stroke:none;stroke-width:1.65795982;stroke-linecap:square;stroke-linejoin:round;stroke-miterlimit:4;stroke-dasharray:13.26367881, 3.3159197, 1.65795985, 3.3159197;stroke-dashoffset:0;stroke-opacity:1"
         d="m 86.56545,71.997292 -13.080048,13.080046 30.976288,30.976702 -30.081333,30.08134 13.080455,13.08005 30.081328,-30.08134 29.78275,29.78315 13.08045,-13.08045 -29.78315,-29.78275 30.67811,-30.678111 -13.08005,-13.080455 -30.67811,30.678106 z"
         id="rect1576"
         inkscape:connector-curvature="0"
         inkscape:export-xdpi="96"
         inkscape:export-ydpi="96" />
      <g
         id="g1700"
         transform="translate(203.40175,8.7220204)">
        <path
           transform="rotate(-0.81302387,-118.79124,14301.347)"
           d="m 179.01738,149.69955 c -28.86165,48.22301 -16.02216,41.07684 -72.21534,40.19342 -56.19317,-0.88342 -43.584659,6.66282 -70.916183,-42.4436 C 8.5543328,98.342943 8.323352,113.03536 37.185002,64.812348 66.046652,16.589341 53.207159,23.735512 109.40033,24.61893 c 56.19318,0.883419 43.58467,-6.662823 70.91619,42.443603 27.33152,49.106427 27.56251,34.414017 -1.29914,82.637017 z"
           inkscape:randomized="0"
           inkscape:rounded="0.68"
           inkscape:flatsided="true"
           sodipodi:arg2="1.0629174"
           sodipodi:arg1="0.53931858"
           sodipodi:r2="71.574615"
           sodipodi:r1="82.647232"
           sodipodi:cy="107.25595"
           sodipodi:cx="108.10119"
           sodipodi:sides="6"
           id="path1215"
           style="opacity:1;fill:#282828;fill-opacity:1;fill-rule:nonzero;stroke:none;stroke-width:0.31956363;stroke-linecap:round;stroke-linejoin:miter;stroke-miterlimit:4;stroke-dasharray:2.55650878, 0.6391272, 0.3195636, 0.6391272;stroke-dashoffset:0;stroke-opacity:1"
           sodipodi:type="star" />
        <path
           transform="matrix(0.31333467,0,0,0.31333467,-185.9778,22.378119)"
           id="path894"
           d="m 371.64508,166.42644 a 28.263021,27.887379 0 0 1 0.45117,-1.60937 27.940086,27.940086 0 0 0 -0.0156,0.0371 27.940086,27.940086 0 0 0 -0.43555,1.57226 z"
           style="font-style:normal;font-variant:normal;font-weight:bold;font-stretch:normal;font-size:128.66061401px;line-height:1.25;font-family:'Century Gothic';-inkscape-font-specification:'Century Gothic Bold';letter-spacing:0px;word-spacing:0px;fill:#ffffff;fill-opacity:1;stroke:none;stroke-width:10.26542854;filter:url(#filter911-5)"
           inkscape:connector-curvature="0" />
        <path
           transform="matrix(0.31333467,0,0,0.31333467,-185.9778,22.378119)"
           id="path892"
           d="m 380.89508,195.06707 a 28.263021,27.887379 0 0 1 -1.78515,-1.56641 28.263021,27.887379 0 0 1 -1.91407,-2.05078 28.263021,27.887379 0 0 1 -1.69531,-2.22852 28.263021,27.887379 0 0 1 -1.46289,-2.38671 28.263021,27.887379 0 0 1 -1.21484,-2.51563 28.263021,27.887379 0 0 1 -0.95313,-2.625 28.263021,27.887379 0 0 1 -0.68164,-2.70508 28.263021,27.887379 0 0 1 -0.40625,-2.75781 28.263021,27.887379 0 0 1 -0.0371,-0.41406 28.263021,27.887379 0 0 1 -0.0801,-2.75 27.940086,27.940086 0 0 0 -0.002,0.0156 27.940086,27.940086 0 0 0 0.082,2.79102 27.940086,27.940086 0 0 0 0.0352,0.41406 27.940086,27.940086 0 0 0 0.40234,2.76367 27.940086,27.940086 0 0 0 0.67383,2.71094 27.940086,27.940086 0 0 0 0.94336,2.62891 27.940086,27.940086 0 0 0 1.19922,2.52148 27.940086,27.940086 0 0 0 1.44531,2.39063 27.940086,27.940086 0 0 0 1.67773,2.23242 27.940086,27.940086 0 0 0 1.65039,1.79101 c 0.71788,0.53802 1.41764,1.15042 2.12305,1.74024 z"
           style="font-style:normal;font-variant:normal;font-weight:bold;font-stretch:normal;font-size:128.66061401px;line-height:1.25;font-family:'Century Gothic';-inkscape-font-specification:'Century Gothic Bold';letter-spacing:0px;word-spacing:0px;fill:#ffffff;fill-opacity:1;stroke:none;stroke-width:10.26542854;filter:url(#filter911-5)"
           inkscape:connector-curvature="0" />
        <path
           transform="matrix(0.31333467,0,0,0.31333467,-185.9778,22.378119)"
           id="path878"
           d="m 397.61188,145.73894 a 27.940086,27.940086 0 0 0 -2.78125,0.23633 27.940086,27.940086 0 0 0 -0.41211,0.0606 27.940086,27.940086 0 0 0 -2.73633,0.55469 27.940086,27.940086 0 0 0 -2.66992,0.82617 27.940086,27.940086 0 0 0 -2.57227,1.08789 27.940086,27.940086 0 0 0 -2.44922,1.33789 27.940086,27.940086 0 0 0 -2.30468,1.57812 27.940086,27.940086 0 0 0 -2.13672,1.79883 27.940086,27.940086 0 0 0 -1.94531,2.00391 27.940086,27.940086 0 0 0 -1.73633,2.1875 27.940086,27.940086 0 0 0 -1.50781,2.34961 27.940086,27.940086 0 0 0 -1.26758,2.49023 27.940086,27.940086 0 0 0 -0.9961,2.56641 28.263021,27.887379 0 0 1 1.02344,-2.59766 28.263021,27.887379 0 0 1 1.28125,-2.48437 28.263021,27.887379 0 0 1 1.52734,-2.34571 28.263021,27.887379 0 0 1 1.75586,-2.18359 28.263021,27.887379 0 0 1 1.96875,-2 28.263021,27.887379 0 0 1 2.16016,-1.79688 28.263021,27.887379 0 0 1 2.33203,-1.57421 28.263021,27.887379 0 0 1 2.47852,-1.33594 28.263021,27.887379 0 0 1 2.60156,-1.08594 28.263021,27.887379 0 0 1 2.69922,-0.82422 28.263021,27.887379 0 0 1 2.76953,-0.55469 28.263021,27.887379 0 0 1 0.41602,-0.0586 28.263021,27.887379 0 0 1 2.76757,-0.23242 27.940086,27.940086 0 0 0 -0.26562,-0.004 z"
           style="font-style:normal;font-variant:normal;font-weight:bold;font-stretch:normal;font-size:128.66061401px;line-height:1.25;font-family:'Century Gothic';-inkscape-font-specification:'Century Gothic Bold';letter-spacing:0px;word-spacing:0px;fill:#ffffff;fill-opacity:1;stroke:none;stroke-width:10.26542854;filter:url(#filter911-5)"
           inkscape:connector-curvature="0" />
        <path
           d="m 215.3262,106.50001 -0.43761,0.43922 -52.7555,91.69395 -0.59919,-0.15938 -105.787032,0.15938 -0.16157,-0.5986 -53.0315413,-91.53457 0.437617,-0.43923 52.7554943,-91.693944 0.599187,0.159376 105.787035,-0.159376 0.16157,0.598599 z"
           inkscape:randomized="0"
           inkscape:rounded="0"
           inkscape:flatsided="false"
           sodipodi:arg2="0.0041456032"
           sodipodi:arg1="-1.0819282e-09"
           sodipodi:r2="105.94952"
           sodipodi:r1="106.38622"
           sodipodi:cy="106.50001"
           sodipodi:cx="108.93998"
           sodipodi:sides="6"
           id="path821-8-1"
           style="opacity:1;fill:none;fill-opacity:1;stroke:#535353;stroke-width:7.36648321;stroke-linecap:round;stroke-linejoin:round;stroke-miterlimit:4;stroke-dasharray:29.4659323, 14.73296615, 7.36648308, 14.73296615;stroke-dashoffset:0;stroke-opacity:1"
           sodipodi:type="star"
           transform="matrix(0.77483689,0,0,0.77855228,-177.80692,22.059089)" />
        <path
           inkscape:transform-center-x="1.5440939e-06"
           transform="matrix(1.4959851,0,0,1.5119024,-232.99317,-91.257369)"
           inkscape:transform-center-y="2.071625e-06"
           d="m 85.196748,172.25413 c -2.77525,7.7707 -2.025956,7.13422 -10.143205,8.61613 -8.117249,1.48191 -7.191389,1.81258 -12.533387,-4.47621 -5.341999,-6.28879 -5.165433,-5.32164 -2.390183,-13.09234 2.77525,-7.7707 2.025957,-7.13421 10.143205,-8.61612 8.117249,-1.48192 7.191389,-1.81258 12.533387,4.47621 5.341999,6.28878 5.165433,5.32163 2.390183,13.09233 z"
           inkscape:randomized="0"
           inkscape:rounded="0.62"
           inkscape:flatsided="true"
           sodipodi:arg2="0.86662272"
           sodipodi:arg1="0.34302394"
           sodipodi:r2="11.525697"
           sodipodi:r1="13.308728"
           sodipodi:cy="167.77792"
           sodipodi:cx="72.663361"
           sodipodi:sides="6"
           id="path4920"
           style="opacity:0.13999999;fill:#c0c0c0;fill-opacity:1;fill-rule:nonzero;stroke:none;stroke-width:0.80884755;stroke-linecap:round;stroke-linejoin:miter;stroke-miterlimit:4;stroke-dasharray:6.47078036, 1.61769509, 0.80884754, 1.61769509;stroke-dashoffset:0;stroke-opacity:1"
           sodipodi:type="star" />
        <rect
           transform="rotate(45)"
           ry="12.085767"
           y="126.26701"
           x="-44.368065"
           height="24.171534"
           width="106.53379"
           id="rect1664"
           style="opacity:1;fill:#f7f7f7;fill-opacity:1;fill-rule:nonzero;stroke:none;stroke-width:0.80884755;stroke-linecap:round;stroke-linejoin:miter;stroke-miterlimit:4;stroke-dasharray:6.47078036, 1.61769509, 0.80884754, 1.61769509;stroke-dashoffset:0;stroke-opacity:1" />
        <rect
           transform="matrix(0.70710678,-0.70710678,-0.70710678,-0.70710678,0,0)"
           ry="12.085767"
           y="-20.984585"
           x="-191.61967"
           height="24.171534"
           width="106.53379"
           id="rect1664-9"
           style="opacity:1;fill:#f7f7f7;fill-opacity:1;fill-rule:nonzero;stroke:none;stroke-width:0.80884755;stroke-linecap:round;stroke-linejoin:miter;stroke-miterlimit:4;stroke-dasharray:6.47078032, 1.61769508, 0.80884754, 1.61769508;stroke-dashoffset:0;stroke-opacity:1" />
        <path
           inkscape:connector-curvature="0"
           id="path890"
           d="m -57.444428,140.1378 a 8.7380828,8.8557845 54.7678 0 0 0.66632,-0.55974 8.7380828,8.8557845 54.7678 0 0 0.09593,-0.0902 8.7380828,8.8557845 54.7678 0 0 0.608556,-0.64259 8.7380828,8.8557845 54.7678 0 0 0.541857,-0.69887 8.7380828,8.8557845 54.7678 0 0 0.469541,-0.74818 8.7380828,8.8557845 54.7678 0 0 0.39286,-0.78994 8.7380828,8.8557845 54.7678 0 0 0.312307,-0.82444 8.7380828,8.8557845 54.7678 0 0 0.228032,-0.85037 8.7380828,8.8557845 54.7678 0 0 0.142361,-0.86775 8.7380828,8.8557845 54.7678 0 0 0.05469,-0.87625 8.7380828,8.8557845 54.7678 0 0 -0.03311,-0.87644 8.7380828,8.8557845 54.7678 0 0 -0.121155,-0.86745 8.7380828,8.8557845 54.7678 0 0 -0.207615,-0.84983 8.7380828,8.8557845 54.7678 0 0 -0.175439,-0.49346 8.7545977,8.7545977 0 0 0 -0.121905,-0.34021 8.7545977,8.7545977 0 0 0 -2.78e-4,-0.002 8.7545977,8.7545977 0 0 0 -0.03672,-0.0775 8.7545977,8.7545977 0 0 0 -0.3396,-0.71317 8.7545977,8.7545977 0 0 0 -0.45063,-0.74413 8.7380828,8.8557845 54.7678 0 0 -0.517598,-0.68936 8.7380828,8.8557845 54.7678 0 0 -0.08433,-0.0993 8.7380828,8.8557845 54.7678 0 0 -0.602476,-0.6324 8.7380828,8.8557845 54.7678 0 0 -0.663427,-0.56912 8.7380828,8.8557845 54.7678 0 0 -0.71844,-0.49955 8.7380828,8.8557845 54.7678 0 0 -0.765645,-0.42425 8.7380828,8.8557845 54.7678 0 0 -0.805816,-0.34646 8.7380828,8.8557845 54.7678 0 0 -0.836715,-0.26393 8.7380828,8.8557845 54.7678 0 0 -0.860583,-0.17889 8.7380828,8.8557845 54.7678 0 0 -0.740031,-0.0782 c -0.06822,-0.006 -0.135601,-0.008 -0.203985,-0.014 a 8.7380828,8.8557845 54.7678 0 0 -0.812422,-0.005 8.7380828,8.8557845 54.7678 0 0 -0.877981,0.0829 8.7380828,8.8557845 54.7678 0 0 -0.866992,0.16952 8.7380828,8.8557845 54.7678 0 0 -0.846532,0.25474 8.7380828,8.8557845 54.7678 0 0 -0.817799,0.33782 8.7380828,8.8557845 54.7678 0 0 -0.781233,0.41615 8.7380828,8.8557845 54.7678 0 1 0.781233,-0.41615 8.7380828,8.8557845 54.7678 0 1 0.817799,-0.33782 8.7380828,8.8557845 54.7678 0 1 0.846532,-0.25474 8.7380828,8.8557845 54.7678 0 1 0.866992,-0.16952 8.7380828,8.8557845 54.7678 0 1 0.877981,-0.0829 8.7380828,8.8557845 54.7678 0 1 0.812422,0.005 c -0.258787,-0.0221 -0.514998,-0.0381 -0.772019,-0.0556 -2.166065,-0.14761 -4.374556,-0.40074 -6.665308,-0.85852 l -1.29295,6.57956 a 8.7380828,8.8557845 54.7678 0 1 0.07936,-0.21916 8.7380828,8.8557845 54.7678 0 1 0.383546,-0.79462 8.7380828,8.8557845 54.7678 0 1 0.460894,-0.75406 8.7380828,8.8557845 54.7678 0 1 0.533693,-0.70509 8.7380828,8.8557845 54.7678 0 0 -0.533693,0.70509 8.7380828,8.8557845 54.7678 0 0 -0.460894,0.75406 8.7380828,8.8557845 54.7678 0 0 -0.383546,0.79462 8.7380828,8.8557845 54.7678 0 0 -0.07936,0.21916 l -0.08458,0.42979 -0.361541,1.83996 a 8.7545977,8.7545977 0 0 0 -0.0354,0.81019 8.7545977,8.7545977 0 0 0 0.04898,0.87346 8.7545977,8.7545977 0 0 0 0.136186,0.86433 8.7545977,8.7545977 0 0 0 0.221787,0.84657 8.7545977,8.7545977 0 0 0 0.305307,0.82055 8.7545977,8.7545977 0 0 0 0.384679,0.78547 8.7545977,8.7545977 0 0 0 0.462162,0.74348 8.7545977,8.7545977 0 0 0 0.534002,0.6935 8.7545977,8.7545977 0 0 0 0.600031,0.63636 8.7545977,8.7545977 0 0 0 0.09476,0.0897 8.7545977,8.7545977 0 0 0 0.669222,0.56354 8.7545977,8.7545977 0 0 0 0.722871,0.49417 8.7545977,8.7545977 0 0 0 0.767387,0.41927 8.7545977,8.7545977 0 0 0 0.806353,0.34082 8.7545977,8.7545977 0 0 0 0.824614,0.25522 c 1.05469,0.0998 2.109253,0.17348 3.164658,0.20888 a 8.7545977,8.7545977 0 0 0 0.321241,-0.0321 8.7545977,8.7545977 0 0 0 0.857688,-0.17421 8.7545977,8.7545977 0 0 0 0.835739,-0.25834 8.7545977,8.7545977 0 0 0 0.805662,-0.34124 8.7545977,8.7545977 0 0 0 0.768225,-0.4197 8.7545977,8.7545977 0 0 0 0.653547,-0.44736 z"
           style="font-style:normal;font-variant:normal;font-weight:bold;font-stretch:normal;font-size:128.66061401px;line-height:1.25;font-family:'Century Gothic';-inkscape-font-specification:'Century Gothic Bold';letter-spacing:0px;word-spacing:0px;fill:#dbdbdb;fill-opacity:1;stroke:none;stroke-width:3.21651483" />
      </g>
    </g>
  </g>
</svg>
