<?xml version="1.0" encoding="UTF-8" standalone="no"?>
<!-- Created with Inkscape (http://www.inkscape.org/) -->

<svg
   xmlns:dc="http://purl.org/dc/elements/1.1/"
   xmlns:cc="http://creativecommons.org/ns#"
   xmlns:rdf="http://www.w3.org/1999/02/22-rdf-syntax-ns#"
   xmlns:svg="http://www.w3.org/2000/svg"
   xmlns="http://www.w3.org/2000/svg"
   xmlns:xlink="http://www.w3.org/1999/xlink"
   xmlns:sodipodi="http://sodipodi.sourceforge.net/DTD/sodipodi-0.dtd"
   xmlns:inkscape="http://www.inkscape.org/namespaces/inkscape"
   width="163.41368mm"
   height="141.5204mm"
   viewBox="0 0 163.41368 141.5204"
   version="1.1"
   id="svg8"
   inkscape:version="0.92.4 (5da689c313, 2019-01-14)"
   sodipodi:docname="logo.svg"
   inkscape:export-filename="E:\carbonic\res\logo.png"
   inkscape:export-xdpi="96"
   inkscape:export-ydpi="96">
  <defs
     id="defs2">
    <linearGradient
       id="linearGradient1058"
       inkscape:collect="always">
      <stop
         id="stop1054"
         offset="0"
         style="stop-color:#717171;stop-opacity:1" />
      <stop
         id="stop1056"
         offset="1"
         style="stop-color:#000000;stop-opacity:0;" />
    </linearGradient>
    <linearGradient
       inkscape:collect="always"
       id="linearGradient963">
      <stop
         style="stop-color:#b4b4b4;stop-opacity:1"
         offset="0"
         id="stop959" />
      <stop
         style="stop-color:#000000;stop-opacity:0;"
         offset="1"
         id="stop961" />
    </linearGradient>
    <inkscape:path-effect
       effect="spiro"
       id="path-effect957"
       is_visible="true" />
    <inkscape:path-effect
       effect="bspline"
       id="path-effect953"
       is_visible="true"
       weight="33.333333"
       steps="2"
       helper_size="0"
       apply_no_weight="true"
       apply_with_weight="true"
       only_selected="false" />
    <filter
       style="color-interpolation-filters:sRGB"
       inkscape:label="Drop Shadow"
       id="filter911">
      <feFlood
         flood-opacity="0.498039"
         flood-color="rgb(0,0,0)"
         result="flood"
         id="feFlood901" />
      <feComposite
         in="flood"
         in2="SourceGraphic"
         operator="in"
         result="composite1"
         id="feComposite903" />
      <feGaussianBlur
         in="composite1"
         stdDeviation="3"
         result="blur"
         id="feGaussianBlur905" />
      <feOffset
         dx="-0.5"
         dy="0"
         result="offset"
         id="feOffset907" />
      <feComposite
         in="SourceGraphic"
         in2="offset"
         operator="over"
         result="composite2"
         id="feComposite909" />
    </filter>
    <filter
       style="color-interpolation-filters:sRGB"
       inkscape:label="Drop Shadow"
       id="filter911-3">
      <feFlood
         flood-opacity="0.498039"
         flood-color="rgb(0,0,0)"
         result="flood"
         id="feFlood901-6" />
      <feComposite
         in="flood"
         in2="SourceGraphic"
         operator="in"
         result="composite1"
         id="feComposite903-1" />
      <feGaussianBlur
         in="composite1"
         stdDeviation="3"
         result="blur"
         id="feGaussianBlur905-0" />
      <feOffset
         dx="-0.5"
         dy="0"
         result="offset"
         id="feOffset907-7" />
      <feComposite
         in="SourceGraphic"
         in2="offset"
         operator="over"
         result="composite2"
         id="feComposite909-3" />
    </filter>
    <linearGradient
       inkscape:collect="always"
       xlink:href="#linearGradient963"
       id="linearGradient965"
       x1="133.24796"
       y1="72.861649"
       x2="160.24641"
       y2="128.19643"
       gradientUnits="userSpaceOnUse" />
    <linearGradient
       inkscape:collect="always"
       xlink:href="#linearGradient1058"
       id="linearGradient965-6"
       x1="133.24796"
       y1="72.861649"
       x2="152.81532"
       y2="130.55884"
       gradientUnits="userSpaceOnUse" />
    <inkscape:path-effect
       effect="spiro"
       id="path-effect957-0"
       is_visible="true" />
  </defs>
  <sodipodi:namedview
     id="base"
     pagecolor="#ffffff"
     bordercolor="#666666"
     borderopacity="1.0"
     inkscape:pageopacity="0.0"
     inkscape:pageshadow="2"
     inkscape:zoom="0.7"
     inkscape:cx="347.91559"
     inkscape:cy="214.96476"
     inkscape:document-units="mm"
     inkscape:current-layer="g935"
     showgrid="false"
     inkscape:window-width="1280"
     inkscape:window-height="747"
     inkscape:window-x="-8"
     inkscape:window-y="-8"
     inkscape:window-maximized="1"
     showguides="true"
     inkscape:snap-global="false" />
  <metadata
     id="metadata5">
    <rdf:RDF>
      <cc:Work
         rdf:about="">
        <dc:format>image/svg+xml</dc:format>
        <dc:type
           rdf:resource="http://purl.org/dc/dcmitype/StillImage" />
        <dc:title></dc:title>
      </cc:Work>
    </rdf:RDF>
  </metadata>
  <g
     inkscape:label="Layer 1"
     inkscape:groupmode="layer"
     id="layer1"
     transform="translate(-10.130797,-22.250447)">
    <g
       id="g839">
      <g
         id="g935"
         transform="matrix(0.84441128,0,0,0.84441128,0.55577546,2.4425127)">
        <path
           sodipodi:type="star"
           style="opacity:1;fill:#282828;fill-opacity:1;fill-rule:nonzero;stroke:none;stroke-width:0.31956363;stroke-linecap:round;stroke-linejoin:miter;stroke-miterlimit:4;stroke-dasharray:2.55650878, 0.6391272, 0.3195636, 0.6391272;stroke-dashoffset:0;stroke-opacity:1"
           id="path1215"
           sodipodi:sides="6"
           sodipodi:cx="108.10119"
           sodipodi:cy="107.25595"
           sodipodi:r1="82.647232"
           sodipodi:r2="71.574615"
           sodipodi:arg1="0.53931858"
           sodipodi:arg2="1.0629174"
           inkscape:flatsided="true"
           inkscape:rounded="0.68"
           inkscape:randomized="0"
           d="m 179.01738,149.69955 c -28.86165,48.22301 -16.02216,41.07684 -72.21534,40.19342 -56.19317,-0.88342 -43.584659,6.66282 -70.916183,-42.4436 C 8.5543328,98.342943 8.323352,113.03536 37.185002,64.812348 66.046652,16.589341 53.207159,23.735512 109.40033,24.61893 c 56.19318,0.883419 43.58467,-6.662823 70.91619,42.443603 27.33152,49.106427 27.56251,34.414017 -1.29914,82.637017 z"
           transform="rotate(-0.81302387,108.10119,107.25595)" />
        <path
           style="font-style:normal;font-variant:normal;font-weight:bold;font-stretch:normal;font-size:128.66061401px;line-height:1.25;font-family:'Century Gothic';-inkscape-font-specification:'Century Gothic Bold';letter-spacing:0px;word-spacing:0px;fill:#ffffff;fill-opacity:1;stroke:none;stroke-width:10.26542854;filter:url(#filter911)"
           d="M 384.76953 168.69531 A 28.263021 27.887379 0 0 1 385.2207 167.08594 A 27.940086 27.940086 0 0 0 385.20508 167.12305 A 27.940086 27.940086 0 0 0 384.76953 168.69531 z "
           id="path894"
           transform="matrix(0.31333467,0,0,0.31333467,11.339287,23.457686)" />
        <path
           style="font-style:normal;font-variant:normal;font-weight:bold;font-stretch:normal;font-size:128.66061401px;line-height:1.25;font-family:'Century Gothic';-inkscape-font-specification:'Century Gothic Bold';letter-spacing:0px;word-spacing:0px;fill:#ffffff;fill-opacity:1;stroke:none;stroke-width:10.26542854;filter:url(#filter911)"
           d="M 394.01953 197.33594 A 28.263021 27.887379 0 0 1 392.23438 195.76953 A 28.263021 27.887379 0 0 1 390.32031 193.71875 A 28.263021 27.887379 0 0 1 388.625 191.49023 A 28.263021 27.887379 0 0 1 387.16211 189.10352 A 28.263021 27.887379 0 0 1 385.94727 186.58789 A 28.263021 27.887379 0 0 1 384.99414 183.96289 A 28.263021 27.887379 0 0 1 384.3125 181.25781 A 28.263021 27.887379 0 0 1 383.90625 178.5 A 28.263021 27.887379 0 0 1 383.86914 178.08594 A 28.263021 27.887379 0 0 1 383.78906 175.33594 A 27.940086 27.940086 0 0 0 383.78711 175.35156 A 27.940086 27.940086 0 0 0 383.86914 178.14258 A 27.940086 27.940086 0 0 0 383.9043 178.55664 A 27.940086 27.940086 0 0 0 384.30664 181.32031 A 27.940086 27.940086 0 0 0 384.98047 184.03125 A 27.940086 27.940086 0 0 0 385.92383 186.66016 A 27.940086 27.940086 0 0 0 387.12305 189.18164 A 27.940086 27.940086 0 0 0 388.56836 191.57227 A 27.940086 27.940086 0 0 0 390.24609 193.80469 A 27.940086 27.940086 0 0 0 391.89648 195.5957 C 392.61436 196.13372 393.31412 196.74612 394.01953 197.33594 z "
           id="path892"
           transform="matrix(0.31333467,0,0,0.31333467,11.339287,23.457686)" />
        <path
           style="font-style:normal;font-variant:normal;font-weight:bold;font-stretch:normal;font-size:128.66061401px;line-height:1.25;font-family:'Century Gothic';-inkscape-font-specification:'Century Gothic Bold';letter-spacing:0px;word-spacing:0px;fill:#ffffff;fill-opacity:1;stroke:none;stroke-width:10.26542854;filter:url(#filter911)"
           d="M 410.73633 148.00781 A 27.940086 27.940086 0 0 0 407.95508 148.24414 A 27.940086 27.940086 0 0 0 407.54297 148.30469 A 27.940086 27.940086 0 0 0 404.80664 148.85938 A 27.940086 27.940086 0 0 0 402.13672 149.68555 A 27.940086 27.940086 0 0 0 399.56445 150.77344 A 27.940086 27.940086 0 0 0 397.11523 152.11133 A 27.940086 27.940086 0 0 0 394.81055 153.68945 A 27.940086 27.940086 0 0 0 392.67383 155.48828 A 27.940086 27.940086 0 0 0 390.72852 157.49219 A 27.940086 27.940086 0 0 0 388.99219 159.67969 A 27.940086 27.940086 0 0 0 387.48438 162.0293 A 27.940086 27.940086 0 0 0 386.2168 164.51953 A 27.940086 27.940086 0 0 0 385.2207 167.08594 A 28.263021 27.887379 0 0 1 386.24414 164.48828 A 28.263021 27.887379 0 0 1 387.52539 162.00391 A 28.263021 27.887379 0 0 1 389.05273 159.6582 A 28.263021 27.887379 0 0 1 390.80859 157.47461 A 28.263021 27.887379 0 0 1 392.77734 155.47461 A 28.263021 27.887379 0 0 1 394.9375 153.67773 A 28.263021 27.887379 0 0 1 397.26953 152.10352 A 28.263021 27.887379 0 0 1 399.74805 150.76758 A 28.263021 27.887379 0 0 1 402.34961 149.68164 A 28.263021 27.887379 0 0 1 405.04883 148.85742 A 28.263021 27.887379 0 0 1 407.81836 148.30273 A 28.263021 27.887379 0 0 1 408.23438 148.24414 A 28.263021 27.887379 0 0 1 411.00195 148.01172 A 27.940086 27.940086 0 0 0 410.73633 148.00781 z "
           id="path878"
           transform="matrix(0.31333467,0,0,0.31333467,11.339287,23.457686)" />
        <path
           style="font-style:normal;font-variant:normal;font-weight:bold;font-stretch:normal;font-size:128.66061401px;line-height:1.25;font-family:'Century Gothic';-inkscape-font-specification:'Century Gothic Bold';letter-spacing:0px;word-spacing:0px;fill:#ffffff;fill-opacity:1;stroke:none;stroke-width:10.26542854;filter:url(#filter911)"
           d="M 323.00977 116.98438 C 294.40558 116.98438 267.67409 123.93484 242.8125 137.83594 C 218.08457 151.73704 199.03637 170.11603 185.66992 192.97266 C 172.43714 215.82928 165.82031 241.96101 165.82031 271.36719 C 165.82031 316.81312 180.39044 354.10531 209.5293 383.24414 C 238.80181 412.24934 276.36208 426.75195 322.20898 426.75195 C 347.07058 426.75195 369.19092 422.67502 388.57227 414.52148 C 407.95363 406.23431 428.53888 391.46359 450.32617 370.21094 L 449.74414 369.60352 L 451.52734 368.0293 A 27.940087 27.940087 0 0 0 453.18945 366.04492 A 27.940087 27.940087 0 0 0 454.75977 363.73633 A 27.940087 27.940087 0 0 0 456.09375 361.2832 A 27.940087 27.940087 0 0 0 457.17383 358.70703 A 27.940087 27.940087 0 0 0 457.99219 356.03516 A 27.940087 27.940087 0 0 0 458.54297 353.29883 A 27.940087 27.940087 0 0 0 458.81445 350.51953 A 27.940087 27.940087 0 0 0 458.80859 347.72461 A 27.940087 27.940087 0 0 0 458.52344 344.94922 A 27.940087 27.940087 0 0 0 458.45703 344.53711 A 27.940087 27.940087 0 0 0 457.85547 341.81055 A 27.940087 27.940087 0 0 0 456.98242 339.15625 A 27.940087 27.940087 0 0 0 455.85156 336.60352 A 27.940087 27.940087 0 0 0 454.4707 334.17578 A 27.940087 27.940087 0 0 0 452.87695 331.92969 C 450.39855 329.62992 447.86886 327.39583 445.26367 325.25781 A 27.940087 27.940087 0 0 0 444.38867 324.71484 A 27.940087 27.940087 0 0 0 441.87695 323.49219 A 27.940087 27.940087 0 0 0 439.25781 322.52539 A 27.940087 27.940087 0 0 0 436.55469 321.82617 A 27.940087 27.940087 0 0 0 433.79492 321.39844 A 27.940087 27.940087 0 0 0 431.26953 321.26367 A 28.263022 27.88738 2.2216607 0 0 428.49609 321.38867 A 28.263022 27.88738 2.2216607 0 0 428.07812 321.42969 A 28.263022 27.88738 2.2216607 0 0 425.28906 321.87695 A 28.263022 27.88738 2.2216607 0 0 422.55859 322.5957 A 28.263022 27.88738 2.2216607 0 0 419.91797 323.58008 A 28.263022 27.88738 2.2216607 0 0 417.38867 324.81836 A 28.263022 27.88738 2.2216607 0 0 414.99805 326.30273 A 28.263022 27.88738 2.2216607 0 0 412.76953 328.01367 A 28.263022 27.88738 2.2216607 0 0 410.72461 329.93555 A 28.263022 27.88738 2.2216607 0 0 408.88672 332.04883 A 28.263022 27.88738 2.2216607 0 0 407.26953 334.33398 A 28.263022 27.88738 2.2216607 0 0 406.08398 336.42969 C 392.28028 349.31116 379.49205 358.43567 367.7207 363.79688 C 354.22059 369.81175 339.31684 372.81836 323.00977 372.81836 C 303.89576 372.81836 286.51961 368.47335 270.88086 359.78516 C 255.24212 351.09698 243.14632 339.13423 234.5918 323.89648 C 226.03727 308.65872 221.75977 291.21702 221.75977 271.56836 C 221.75977 243.36515 231.38318 219.63831 250.63086 200.39062 C 270.01221 181.14295 293.80462 171.51953 322.00781 171.51953 C 347.20583 171.51953 370.49866 179.55885 391.89648 195.5957 A 27.940086 27.940086 0 0 1 390.24609 193.80469 A 27.940086 27.940086 0 0 1 388.56836 191.57227 A 27.940086 27.940086 0 0 1 387.12305 189.18164 A 27.940086 27.940086 0 0 1 385.92383 186.66016 A 27.940086 27.940086 0 0 1 384.98047 184.03125 A 27.940086 27.940086 0 0 1 384.30664 181.32031 A 27.940086 27.940086 0 0 1 383.9043 178.55664 A 27.940086 27.940086 0 0 1 383.86914 178.14258 A 27.940086 27.940086 0 0 1 383.78711 175.35156 A 27.940086 27.940086 0 0 1 383.98438 172.56641 A 27.940086 27.940086 0 0 1 384.45898 169.8125 A 27.940086 27.940086 0 0 1 385.20508 167.12305 A 27.940086 27.940086 0 0 1 386.2168 164.51953 A 27.940086 27.940086 0 0 1 387.48438 162.0293 A 27.940086 27.940086 0 0 1 388.99219 159.67969 A 27.940086 27.940086 0 0 1 390.72852 157.49219 A 27.940086 27.940086 0 0 1 392.67383 155.48828 A 27.940086 27.940086 0 0 1 394.81055 153.68945 A 27.940086 27.940086 0 0 1 397.11523 152.11133 A 27.940086 27.940086 0 0 1 399.56445 150.77344 A 27.940086 27.940086 0 0 1 402.13672 149.68555 A 27.940086 27.940086 0 0 1 404.80664 148.85938 A 27.940086 27.940086 0 0 1 407.54297 148.30469 A 27.940086 27.940086 0 0 1 407.95508 148.24414 A 27.940086 27.940086 0 0 1 410.73633 148.00781 A 27.940086 27.940086 0 0 1 413.5293 148.04883 A 27.940086 27.940086 0 0 1 416.30469 148.36914 A 27.940086 27.940086 0 0 1 419.0332 148.96289 A 27.940086 27.940086 0 0 1 421.6875 149.82812 A 27.940086 27.940086 0 0 1 424.24414 150.95312 A 27.940086 27.940086 0 0 1 425.14062 151.46094 C 415.29471 144.00011 404.6475 137.64506 393.18359 132.42188 C 370.72797 122.12971 347.3367 116.98438 323.00977 116.98438 z "
           transform="matrix(0.31333467,0,0,0.31333467,11.339287,23.457686)"
           id="path854" />
        <path
           transform="matrix(0.77483689,0,0,0.7785523,23.622512,23.849571)"
           sodipodi:type="star"
           style="opacity:1;fill:none;fill-opacity:1;stroke:#535353;stroke-width:7.36648308;stroke-linecap:round;stroke-linejoin:round;stroke-miterlimit:4;stroke-dasharray:29.4659323,14.73296615,7.36648308,14.73296615;stroke-dashoffset:0;stroke-opacity:1"
           id="path821-8"
           sodipodi:sides="6"
           sodipodi:cx="108.93998"
           sodipodi:cy="106.50001"
           sodipodi:r1="106.38622"
           sodipodi:r2="105.94952"
           sodipodi:arg1="-1.0819282e-09"
           sodipodi:arg2="0.0041456032"
           inkscape:flatsided="false"
           inkscape:rounded="0"
           inkscape:randomized="0"
           d="m 215.3262,106.50001 -0.43761,0.43922 -52.7555,91.69395 -0.59919,-0.15938 -105.787032,0.15938 -0.16157,-0.5986 -53.0315413,-91.53457 0.437617,-0.43923 52.7554943,-91.693944 0.599187,0.159376 105.787035,-0.159376 0.16157,0.598599 z" />
        <text
           xml:space="preserve"
           style="font-style:normal;font-weight:normal;font-size:16.45525742px;line-height:1.25;font-family:sans-serif;letter-spacing:0px;word-spacing:0px;fill:#ffff00;fill-opacity:1;stroke:none;stroke-width:0.41138142"
           x="39.819077"
           y="176.84184"
           id="text948"
           transform="rotate(-43.087776)"><tspan
             sodipodi:role="line"
             id="tspan946"
             x="39.819077"
             y="176.84184"
             style="font-style:normal;font-variant:normal;font-weight:bold;font-stretch:normal;font-family:'Century Gothic';-inkscape-font-specification:'Century Gothic Bold';fill:#ffff00;fill-opacity:1;stroke-width:0.41138142">PY</tspan></text>
        <path
           style="font-style:normal;font-variant:normal;font-weight:bold;font-stretch:normal;font-size:128.66061401px;line-height:1.25;font-family:'Century Gothic';-inkscape-font-specification:'Century Gothic Bold';letter-spacing:0px;word-spacing:0px;fill:#dbdbdb;fill-opacity:1;stroke:none;stroke-width:10.26542854"
           d="m 411.00195,148.01172 a 28.263021,27.887379 0 0 0 -2.76757,0.23242 28.263021,27.887379 0 0 0 -0.41602,0.0586 28.263021,27.887379 0 0 0 -2.76953,0.55469 28.263021,27.887379 0 0 0 -2.69922,0.82422 28.263021,27.887379 0 0 0 -2.60156,1.08594 28.263021,27.887379 0 0 0 -2.47852,1.33594 28.263021,27.887379 0 0 0 -2.33203,1.57421 28.263021,27.887379 0 0 0 -2.16016,1.79688 28.263021,27.887379 0 0 0 -1.96875,2 28.263021,27.887379 0 0 0 -1.75586,2.18359 28.263021,27.887379 0 0 0 -1.52734,2.34571 28.263021,27.887379 0 0 0 -1.28125,2.48437 28.263021,27.887379 0 0 0 -1.02344,2.59766 28.263021,27.887379 0 0 0 -0.45117,1.60937 27.940086,27.940086 0 0 0 -0.30859,1.11133 27.940086,27.940086 0 0 0 -0.002,0.006 27.940086,27.940086 0 0 0 -0.0469,0.26953 27.940086,27.940086 0 0 0 -0.42773,2.48438 27.940086,27.940086 0 0 0 -0.19532,2.76953 28.263021,27.887379 0 0 0 0.0801,2.75 28.263021,27.887379 0 0 0 0.0371,0.41406 28.263021,27.887379 0 0 0 0.40625,2.75781 28.263021,27.887379 0 0 0 0.68164,2.70508 28.263021,27.887379 0 0 0 0.95313,2.625 28.263021,27.887379 0 0 0 1.21484,2.51563 28.263021,27.887379 0 0 0 1.46289,2.38671 28.263021,27.887379 0 0 0 1.69531,2.22852 28.263021,27.887379 0 0 0 1.91407,2.05078 28.263021,27.887379 0 0 0 1.78515,1.56641 c 0.16767,0.14019 0.3384,0.27106 0.50586,0.41211 a 28.263021,27.887379 0 0 0 2.10938,1.50781 28.263021,27.887379 0 0 0 2.4414,1.40039 28.263021,27.887379 0 0 0 2.57227,1.1543 28.263021,27.887379 0 0 0 2.67578,0.89453 28.263021,27.887379 0 0 0 2.7539,0.625 28.263021,27.887379 0 0 0 2.80274,0.35351 28.263021,27.887379 0 0 1 -2.80274,-0.35351 28.263021,27.887379 0 0 1 -2.7539,-0.625 28.263021,27.887379 0 0 1 -2.67578,-0.89453 28.263021,27.887379 0 0 1 -2.57227,-1.1543 28.263021,27.887379 0 0 1 -2.4414,-1.40039 28.263021,27.887379 0 0 1 -2.10938,-1.50781 c 0.63403,0.53399 1.27238,1.04753 1.91016,1.5664 5.37486,4.37283 10.66605,9.09882 15.79492,14.50977 l 15.48437,-14.77149 a 28.263021,27.887379 0 0 1 -0.61132,0.42383 28.263021,27.887379 0 0 1 -2.4629,1.36524 28.263021,27.887379 0 0 1 -2.58984,1.11718 28.263021,27.887379 0 0 1 -2.68945,0.85547 28.263021,27.887379 0 0 0 2.68945,-0.85547 28.263021,27.887379 0 0 0 2.58984,-1.11718 28.263021,27.887379 0 0 0 2.4629,-1.36524 28.263021,27.887379 0 0 0 0.61132,-0.42383 l 1.01172,-0.96484 4.33008,-4.13086 a 27.940086,27.940086 0 0 0 1.58398,-2.04687 27.940086,27.940086 0 0 0 1.48047,-2.36719 27.940086,27.940086 0 0 0 1.23633,-2.50391 27.940086,27.940086 0 0 0 0.98047,-2.61523 27.940086,27.940086 0 0 0 0.71484,-2.70117 27.940086,27.940086 0 0 0 0.44336,-2.75586 27.940086,27.940086 0 0 0 0.16407,-2.78907 27.940086,27.940086 0 0 0 -0.11524,-2.79101 27.940086,27.940086 0 0 0 -0.39258,-2.76367 27.940086,27.940086 0 0 0 -0.082,-0.40821 27.940086,27.940086 0 0 0 -0.70703,-2.70117 27.940086,27.940086 0 0 0 -0.97461,-2.61914 27.940086,27.940086 0 0 0 -1.22851,-2.50586 27.940086,27.940086 0 0 0 -1.47461,-2.37305 27.940086,27.940086 0 0 0 -1.67969,-2.18359 c -2.56569,-2.20196 -5.17913,-4.33567 -7.86524,-6.37109 a 27.940086,27.940086 0 0 0 -0.89648,-0.50782 27.940086,27.940086 0 0 0 -2.55664,-1.125 27.940086,27.940086 0 0 0 -2.6543,-0.86523 27.940086,27.940086 0 0 0 -2.72851,-0.59375 27.940086,27.940086 0 0 0 -2.77539,-0.32031 27.940086,27.940086 0 0 0 -2.52735,-0.0371 z"
           id="path890"
           transform="matrix(-0.18129913,0.25555673,-0.25555673,-0.18129913,259.72696,5.0162747)"
           inkscape:connector-curvature="0" />
        <path
           style="fill:none;stroke:url(#linearGradient965);stroke-width:0.9136513;stroke-linecap:round;stroke-linejoin:miter;stroke-opacity:1;stroke-miterlimit:4;stroke-dasharray:7.3092104, 1.82730260000000011, 0.91365130000000006, 1.82730260000000011;stroke-dashoffset:0"
           d="m 130.85408,70.644176 c -9.57331,-4.021252 -20.64512,-4.346893 -30.43822,-0.895241 -8.123695,2.863258 -15.332805,8.281327 -20.306031,15.314085 -4.973225,7.032758 -7.680611,15.64985 -7.578894,24.26276 0.101718,8.61292 3.019169,17.17649 8.232108,24.03346 5.21294,6.85696 12.698059,11.96442 20.995677,14.27574 7.22782,2.01332 15.03211,1.90861 22.2033,-0.29791 7.1712,-2.20652 13.68442,-6.5072 18.53021,-12.23547"
           id="path955"
           inkscape:connector-curvature="0"
           inkscape:path-effect="#path-effect957"
           inkscape:original-d="m 130.85408,70.644176 c -10.29497,-0.14952 -20.29183,-0.59714 -30.43822,-0.895241 -10.146391,-0.2981 0.89555,51.923715 1.34286,77.886045 0.44731,25.96233 27.15599,-8.3559 40.73351,-12.53338"
           transform="matrix(0.88529131,0,0,0.88529131,12.330229,13.040867)" />
        <path
           style="fill:none;stroke:url(#linearGradient965-6);stroke-width:0.94874728;stroke-linecap:round;stroke-linejoin:miter;stroke-miterlimit:4;stroke-dasharray:7.58997831, 1.89749458000000004, 0.94874729000000002, 1.89749458000000004;stroke-dashoffset:0;stroke-opacity:1"
           d="m 130.85408,70.644176 c -9.57331,-4.021252 -20.64512,-4.346893 -30.43822,-0.895241 -8.123695,2.863258 -15.332805,8.281327 -20.306031,15.314085 -4.973225,7.032758 -7.680611,15.64985 -7.578894,24.26276 0.101718,8.61292 3.019169,17.17649 8.232108,24.03346 5.21294,6.85696 12.698059,11.96442 20.995677,14.27574 7.22782,2.01332 15.03211,1.90861 22.2033,-0.29791 7.1712,-2.20652 13.68442,-6.5072 18.53021,-12.23547"
           id="path955-7"
           inkscape:connector-curvature="0"
           inkscape:path-effect="#path-effect957-0"
           inkscape:original-d="m 130.85408,70.644176 c -10.29497,-0.14952 -20.29183,-0.59714 -30.43822,-0.895241 -10.146391,-0.2981 0.89555,51.923715 1.34286,77.886045 0.44731,25.96233 27.15599,-8.3559 40.73351,-12.53338"
           transform="matrix(0.8462308,0,0,0.8462308,16.529039,17.268138)" />
        <path
           sodipodi:type="star"
           style="opacity:0.13999999;fill:#c0c0c0;fill-opacity:1;fill-rule:nonzero;stroke:none;stroke-width:0.80884755;stroke-linecap:round;stroke-linejoin:miter;stroke-miterlimit:4;stroke-dasharray:6.47078036, 1.61769509, 0.80884754, 1.61769509;stroke-dashoffset:0;stroke-opacity:1"
           id="path4920"
           sodipodi:sides="6"
           sodipodi:cx="72.663361"
           sodipodi:cy="167.77792"
           sodipodi:r1="13.308728"
           sodipodi:r2="11.525697"
           sodipodi:arg1="0.34302394"
           sodipodi:arg2="0.86662272"
           inkscape:flatsided="true"
           inkscape:rounded="0.62"
           inkscape:randomized="0"
           d="m 85.196748,172.25413 c -2.77525,7.7707 -2.025956,7.13422 -10.143205,8.61613 -8.117249,1.48191 -7.191389,1.81258 -12.533387,-4.47621 -5.341999,-6.28879 -5.165433,-5.32164 -2.390183,-13.09234 2.77525,-7.7707 2.025957,-7.13421 10.143205,-8.61612 8.117249,-1.48192 7.191389,-1.81258 12.533387,4.47621 5.341999,6.28878 5.165433,5.32163 2.390183,13.09233 z"
           inkscape:transform-center-y="2.071625e-06"
           transform="matrix(1.4959851,0,0,1.5119024,-31.563736,-89.466886)"
           inkscape:transform-center-x="1.5440939e-06" />
        <text
           xml:space="preserve"
           style="font-style:normal;font-weight:normal;font-size:12.53338718px;line-height:1.25;font-family:sans-serif;letter-spacing:0px;word-spacing:0px;fill:#000000;fill-opacity:1;stroke:none;stroke-width:0.31333467"
           x="-24.470388"
           y="216.12099"
           id="text4924"><tspan
             sodipodi:role="line"
             id="tspan4922"
             x="-24.470388"
             y="227.55557"
             style="stroke-width:0.31333467" /></text>
        <text
           xml:space="preserve"
           style="font-style:normal;font-weight:normal;font-size:12.53338718px;line-height:1.25;font-family:sans-serif;letter-spacing:0px;word-spacing:0px;fill:#000000;fill-opacity:1;stroke:none;stroke-width:0.31333467"
           x="162.63518"
           y="187.02563"
           id="text4928"><tspan
             sodipodi:role="line"
             id="tspan4926"
             x="162.63518"
             y="187.02563"
             style="font-style:normal;font-variant:normal;font-weight:normal;font-stretch:normal;font-family:'Trebuchet MS';-inkscape-font-specification:'Trebuchet MS';stroke-width:0.31333467">©</tspan></text>
      </g>
    </g>
  </g>
</svg>
